<svg width="100" height="100" viewBox="0 0 100 100" fill="none" xmlns="http://www.w3.org/2000/svg">
<path d="M72.7536 39.259C71.6015 39.259 70.5646 39.3742 69.5277 39.6047C69.1821 39.7199 68.9516 39.7199 68.606 39.8351C68.4908 39.8351 68.4908 39.8351 68.3756 39.8351C68.1452 39.9503 67.9147 39.9503 67.6843 40.0655C67.5691 40.0655 67.5691 40.0655 67.4539 40.1807C67.2235 40.2959 66.9931 40.2959 66.7626 40.4111C66.6474 40.4111 66.6474 40.4111 66.5322 40.5264C66.3018 40.6416 66.0714 40.7568 65.8409 40.872H65.7257C63.1911 42.0241 61.002 43.8675 59.3891 46.1717C58.9282 46.863 58.4674 47.5543 58.1218 48.2455C57.7761 48.9368 57.4305 49.7433 57.2001 50.4346V50.5498C57.0849 50.8954 56.9696 51.241 56.8544 51.7019V51.8171C56.7392 52.1627 56.7392 52.5084 56.624 52.854V52.9692C56.5088 53.3149 56.5088 53.7757 56.5088 54.1213C56.5088 54.2366 56.5088 54.2365 56.5088 54.3518C56.5088 54.6974 56.5088 55.1582 56.5088 55.5039C56.5088 55.8495 56.5088 56.3104 56.5088 56.656C56.5088 56.7712 56.5088 56.7712 56.5088 56.8864C56.5088 57.2321 56.624 57.6929 56.624 58.0385V58.1537C56.7392 58.4994 56.7392 58.845 56.8544 59.1907V59.3059C56.9696 59.6515 57.0849 60.1123 57.2001 60.458V60.5732C57.4305 61.3797 57.7761 62.0709 58.1218 62.7622C58.4674 63.4535 58.9282 64.1448 59.3891 64.836C60.3108 66.1034 61.3477 67.2555 62.615 68.1772C63.5367 68.9836 64.6888 69.5597 65.7257 70.1358H65.8409C66.0714 70.251 66.3018 70.3662 66.5322 70.4814C66.6474 70.4814 66.6474 70.4814 66.7626 70.5966C66.9931 70.7118 67.2235 70.7118 67.3387 70.827C67.4539 70.827 67.4539 70.827 67.5691 70.9422C67.7995 71.0575 68.03 71.0574 68.2604 71.1727C68.3756 71.1727 68.3756 71.1727 68.4908 71.2879C68.8364 71.4031 69.0669 71.4031 69.4125 71.5183C70.4494 71.7487 71.6015 71.8639 72.6384 71.8639C81.6249 71.8639 88.9985 64.4904 88.9985 55.5039C89.1137 46.6326 81.7401 39.259 72.7536 39.259ZM71.3711 65.6425C70.9102 66.2186 70.1038 66.5642 69.4125 66.5642C69.1821 66.5642 68.8364 66.5642 68.606 66.449C68.606 66.449 68.606 66.449 68.4908 66.449C68.3756 66.449 68.2604 66.3338 68.1452 66.3338C68.03 66.2186 67.9147 66.2186 67.7995 66.1034L62.615 61.7253L59.3891 58.845L58.5826 58.1537C57.5457 57.2321 57.3153 55.6191 58.237 54.5822C58.3522 54.467 58.4674 54.3518 58.5826 54.2365L58.6978 54.1213C58.813 54.1213 58.813 54.0061 58.9282 54.0061C59.0434 54.0061 59.1587 53.8909 59.1587 53.8909C60.0804 53.5453 61.1173 53.6605 61.8085 54.2365L69.1821 60.3428L80.8184 47.3238C81.7401 46.2869 83.3531 46.1717 84.5052 47.0934C85.5421 48.0151 85.6573 49.6281 84.7356 50.7802L71.3711 65.6425Z" fill="#FFF000"/>
<path d="M27.9357 53.3147H52.4758C53.0519 48.1301 55.7018 43.5217 59.3885 40.2957V30.8484H21.4839V80.9655H59.3885V71.1725C55.4713 67.7161 52.8215 62.8772 52.3606 57.3471H27.9357C26.7836 57.3471 25.9771 56.4254 25.9771 55.3885C25.9771 54.1211 26.7836 53.3147 27.9357 53.3147ZM27.9357 67.4857H52.9367C54.0888 67.4857 54.8953 68.4074 54.8953 69.4443C54.8953 70.5964 53.9736 71.4029 52.9367 71.4029H27.9357C26.7836 71.4029 25.9771 70.4812 25.9771 69.4443C25.9771 68.4074 26.7836 67.4857 27.9357 67.4857ZM27.9357 39.0284H52.9367C54.0888 39.0284 54.8953 39.9501 54.8953 40.987C54.8953 42.1391 53.9736 42.9456 52.9367 42.9456H27.9357C26.7836 42.9456 25.9771 42.0239 25.9771 40.987C25.9771 39.9501 26.7836 39.0284 27.9357 39.0284Z" fill="#1A2189"/>
<path d="M62.6148 84.0766H18.2583V27.6229H62.6148V37.9919C64.6886 36.8398 66.9929 36.0333 69.4123 35.5725V21.9775C69.4123 20.595 68.2602 19.4429 66.8777 19.4429H55.4717V17.0234C55.4717 15.7561 54.4348 14.8344 53.2827 14.8344H52.1306V11.2628C52.1306 8.9586 50.2872 7 47.8677 7H32.5446C30.2403 7 28.2817 8.84339 28.2817 11.2628V14.8344H27.1296C25.8623 14.8344 24.9406 15.8713 24.9406 17.0234V19.4429H13.5347C12.1521 19.4429 11 20.595 11 21.9775V89.6068C11 90.9893 12.1521 92.1414 13.5347 92.1414H66.7624C68.145 92.1414 69.2971 90.9893 69.2971 89.6068V75.7814C66.8777 75.4357 64.5734 74.514 62.4996 73.3619V84.0766H62.6148ZM32.3142 11.2628C32.3142 11.1476 32.4294 11.0324 32.5446 11.0324H47.8677C47.9829 11.0324 48.0981 11.1476 48.0981 11.2628V14.8344H32.3142V11.2628Z" fill="#1A2189"/>
</svg>
