<svg width="100" height="100" viewBox="0 0 100 100" fill="none" xmlns="http://www.w3.org/2000/svg">
<path d="M76.1998 19.7V42.3C75.8998 42.4 75.5998 42.6 75.1998 42.8C73.8998 42.1 72.3998 41.7 70.7998 41.7V19.7C70.7998 19 70.1998 18.4 69.4998 18.4H14.4998C13.7998 18.4 13.1998 19 13.1998 19.7V52.4C13.1998 53.1 13.7998 53.7 14.4998 53.7H53.5998V55.8C52.5998 55.5 51.5998 55.3 50.4998 55.3C48.5998 55.3 46.8998 55.8 45.2998 56.9C45.1998 57 44.9998 57.1 44.8998 57.2C44.1998 57.7 43.4998 58.4 42.9998 59.1C42.0998 60.3 41.4998 61.7 41.2998 63.3C41.1998 64.2 41.1998 65.1 41.2998 66C41.4998 67.5 42.0998 68.9 42.9998 70.2L44.2998 71.9H18.0998V66H33.4998V59.1H14.4998C10.7998 59.1 7.7998 56.1 7.7998 52.4V19.7C7.7998 16 10.7998 13 14.4998 13H69.5998C73.2998 13 76.1998 16 76.1998 19.7Z" fill="#1A2189"/>
<path d="M88.1996 49.6001C86.9996 49.6001 85.9996 50.1001 85.2996 50.9001V58.9001H83.2996V48.0001C82.4996 47.0001 81.1996 46.4001 79.8996 46.4001C78.4996 46.4001 77.2996 47.0001 76.3996 48.0001V58.9001H74.3996V48.0001L74.2996 47.9001C74.1996 47.8001 74.1996 47.8001 74.0996 47.7001C73.9996 47.6001 73.8996 47.5001 73.7996 47.4001C73.7996 47.4001 73.6996 47.4001 73.6996 47.3001C73.5996 47.2001 73.5996 47.2001 73.4996 47.2001L73.3996 47.1001L73.2996 47.0001H73.1996C73.0996 47.0001 72.9996 46.9001 72.9996 46.9001C72.9996 46.9001 72.8996 46.9001 72.8996 46.8001C72.7996 46.7001 72.5996 46.7001 72.4996 46.6001H72.3996H72.2996C72.1996 46.6001 72.0996 46.5001 71.8996 46.5001H71.7996H71.6996H71.5996H71.4996H71.3996H71.2996H71.1996C71.1996 46.5001 71.1996 46.5001 71.0996 46.5001H70.9996C69.5996 46.5001 68.3996 47.1001 67.5996 48.1001V59.0001H65.5996V32.7001C64.7996 31.7001 63.4996 31.1001 62.1996 31.1001C60.7996 31.1001 59.5996 31.7001 58.7996 32.7001V67.7001L57.4996 65.9001L54.4996 61.9001C52.9996 59.9001 50.1996 59.5001 48.2996 61.0001C48.0996 61.1001 47.9996 61.2001 47.8996 61.4001L47.7996 61.5001L47.6996 61.6001L47.5996 61.7001C47.5996 61.7001 47.5996 61.8001 47.4996 61.8001C47.4996 61.8001 47.4996 61.9001 47.3996 61.9001C47.3996 61.9001 47.3996 62.0001 47.2996 62.0001L47.1996 62.1001C47.1996 62.1001 47.1996 62.1001 47.1996 62.2001C47.0996 62.3001 46.9996 62.5001 46.8996 62.6001V62.7001C46.8996 62.8001 46.7996 62.9001 46.7996 63.0001C46.7996 63.1001 46.6996 63.2001 46.6996 63.2001V63.3001V63.4001C46.6996 63.5001 46.6996 63.5001 46.5996 63.6001V63.7001C46.5996 63.8001 46.5996 63.8001 46.5996 63.9001V64.0001V64.1001V64.2001V64.3001C46.5996 64.3001 46.5996 64.3001 46.5996 64.4001C46.5996 64.6001 46.5996 64.7001 46.5996 64.9001C46.5996 65.0001 46.5996 65.0001 46.5996 65.1001C46.5996 65.2001 46.5996 65.2001 46.5996 65.3001C46.5996 65.4001 46.5996 65.4001 46.5996 65.5001C46.5996 65.6001 46.5996 65.6001 46.5996 65.7001C46.5996 65.8001 46.5996 65.8001 46.5996 65.9001C46.5996 66.0001 46.5996 66.0001 46.5996 66.1001C46.5996 66.2001 46.5996 66.2001 46.6996 66.3001C46.6996 66.3001 46.6996 66.4001 46.7996 66.4001V66.5001V66.6001C46.7996 66.6001 46.7996 66.7001 46.8996 66.7001C46.8996 66.8001 46.9996 66.8001 46.9996 66.9001C47.0996 67.0001 47.0996 67.1001 47.1996 67.2001C47.1996 67.2001 47.1996 67.2001 47.1996 67.3001L47.2996 67.4001L50.6996 72.0001L61.5996 87.0001H84.4996L92.0996 79.4001V53.6001C92.0996 51.4001 90.3996 49.6001 88.1996 49.6001Z" fill="#FFF000"/>
</svg>
