<svg width="100" height="100" viewBox="0 0 100 100" fill="none" xmlns="http://www.w3.org/2000/svg">
<path d="M69.314 23.0572L58.9425 18.9429L56.6283 56.0572L48.9997 63.6857L41.3711 56.0572L39.0568 18.9429L28.6854 23.0572C28.6854 23.0572 17.9711 36 16.2568 63.6857H24.9997C26.714 54.5143 29.5425 40.0286 31.2568 38.3143C33.8283 35.7429 31.2568 73.8 31.2568 73.8C31.2568 73.8 38.8854 81.4286 48.9997 81.4286C59.114 81.4286 66.7425 73.8 66.7425 73.8C66.7425 73.8 64.1711 35.7429 66.7425 38.3143C68.4568 40.0286 71.3711 54.5143 72.9997 63.6857H81.6568C80.0283 36 69.314 23.0572 69.314 23.0572Z" fill="#FFF000"/>
<path d="M74.3718 71.3145H82.0004C82.0004 69.6002 81.9147 67.8859 81.9147 66.2573H73.5146C74.0289 69.2573 74.3718 71.3145 74.3718 71.3145Z" fill="white"/>
<path d="M16 71.3145H23.6286C23.6286 71.3145 23.9714 69.2573 24.4857 66.2573H16.0857C16.0857 67.8859 16 69.5145 16 71.3145Z" fill="white"/>
<path d="M51.4859 18H46.4287V23.0571H51.4859V18Z" fill="white"/>
<path d="M54.0572 48.4284L51.5714 25.6284H46.4286L43.9429 48.4284L49 56.057L54.0572 48.4284Z" fill="white"/>
</svg>
