<svg width="100" height="100" viewBox="0 0 100 100" fill="none" xmlns="http://www.w3.org/2000/svg">
<path d="M68.6951 18H55.6341C56.5732 21.7561 57.5122 25.4268 58.4512 29.1829V35.0732H41.5488V29.1829C42.4878 25.4268 43.4268 21.7561 44.3659 18H31.3049C28.2317 21.7561 25.0732 25.4268 22 29.1829V81.1707H78V29.1829C74.9268 25.4268 71.7683 21.7561 68.6951 18ZM43.3415 40.878H57.0854C58.5366 40.878 60.3293 41.9024 61.0122 43.1829L62.4634 45.7439L65.1951 44.1219L63.8293 47.878L61.6097 53.4268L55.2927 52.4878L51.7073 51.9756L54.1829 50.5244L50.3415 43.7805L46.4146 50.6098L37.9634 45.7439L39.5 43.0122C40.0976 41.9024 41.8902 40.878 43.3415 40.878ZM47.1829 73.8293H43.4268C41.9756 73.8293 40.1829 72.8049 39.5 71.5244L32.5854 59.5732C31.9024 58.2927 31.9024 56.2439 32.5854 55.0488L34.1219 52.4024L31.561 50.9512L35.2317 50.439L41.4634 49.5854L43.7683 55.2195L45.2195 58.8902L42.4878 57.2683L38.561 64.0976H47.1829V73.8293ZM67.9268 59.5732L61.0122 71.5244C60.3293 72.8049 58.5366 73.8293 57.0854 73.8293H54.6951V76.9024L52.3049 73.8293L48.5488 68.9634L52.3049 64.0976L54.6951 61.0244V64.0976H61.9512L57.939 57.0976L66.3902 52.2317L68.0122 55.0488C68.6951 56.3293 68.6951 58.378 67.9268 59.5732Z" fill="#FFF000"/>
<path d="M51.6218 29.1829H48.3779C48.5487 25.4268 48.7194 21.7561 48.8901 18H51.0243C51.2804 21.7561 51.4511 25.4268 51.6218 29.1829Z" fill="#FFF000"/>
<path d="M51.6218 29.1829H48.3779C48.5487 25.4268 48.7194 21.7561 48.8901 18H51.0243C51.2804 21.7561 51.4511 25.4268 51.6218 29.1829Z" fill="#FFF000"/>
<path d="M51.6218 29.1829H48.3779C48.5487 25.4268 48.7194 21.7561 48.8901 18H51.0243C51.2804 21.7561 51.4511 25.4268 51.6218 29.1829Z" fill="white"/>
</svg>
