<svg width="100" height="100" viewBox="0 0 100 100" fill="none" xmlns="http://www.w3.org/2000/svg">
<path d="M55.5002 16.9001C55.5002 15.2001 54.1002 13.9001 52.5002 13.9001H20.8002C18.0002 13.9001 16.6002 15.3001 15.8002 18.9001L5.2002 61.9001H6.2002H7.8002H54.2002H55.8002H56.9002L55.5002 16.9001ZM41.2002 52.3001C36.2002 55.2001 29.2002 55.6001 19.9002 55.8001C14.2002 55.9001 10.8002 56.6001 9.1002 57.1001L18.3002 19.4001C19.0002 16.5001 19.7002 16.5001 20.7002 16.5001H52.4002C52.6002 16.5001 52.8002 16.7001 52.8002 16.9001V17.0001L53.8002 48.1001C51.2002 48.5001 45.7002 49.7001 41.2002 52.3001Z" fill="#1A2189"/>
<path d="M12.6 68.2002C7.6 68.2002 3.5 72.3002 3.5 77.3002C3.5 82.3002 7.6 86.4002 12.6 86.4002C17.6 86.4002 21.7 82.3002 21.7 77.3002C21.7 72.3002 17.6 68.2002 12.6 68.2002ZM12.6 82.1002C10 82.1002 7.8 80.0002 7.8 77.3002C7.8 74.7002 9.9 72.5002 12.6 72.5002C15.2 72.5002 17.4 74.6002 17.4 77.3002C17.3 79.9002 15.2 82.1002 12.6 82.1002Z" fill="#1A2189"/>
<path d="M12.6002 81.2001C14.7541 81.2001 16.5002 79.4541 16.5002 77.3001C16.5002 75.1462 14.7541 73.4001 12.6002 73.4001C10.4463 73.4001 8.7002 75.1462 8.7002 77.3001C8.7002 79.4541 10.4463 81.2001 12.6002 81.2001Z" fill="#FFF000"/>
<path d="M49.7001 68.2002C44.7001 68.2002 40.6001 72.3002 40.6001 77.3002C40.6001 82.3002 44.7001 86.4002 49.7001 86.4002C54.7001 86.4002 58.8001 82.3002 58.8001 77.3002C58.8001 72.3002 54.7001 68.2002 49.7001 68.2002ZM49.7001 82.1002C47.1001 82.1002 44.9001 80.0002 44.9001 77.3002C44.9001 74.7002 47.0001 72.5002 49.7001 72.5002C52.3001 72.5002 54.5001 74.6002 54.5001 77.3002C54.4001 79.9002 52.3001 82.1002 49.7001 82.1002Z" fill="#1A2189"/>
<path d="M49.6998 81.2001C51.8537 81.2001 53.5998 79.4541 53.5998 77.3001C53.5998 75.1462 51.8537 73.4001 49.6998 73.4001C47.5459 73.4001 45.7998 75.1462 45.7998 77.3001C45.7998 79.4541 47.5459 81.2001 49.6998 81.2001Z" fill="#FFF000"/>
<path d="M99.9999 73H69.3999V77.3L99.9999 74.4V73Z" fill="#1A2189"/>
<path d="M67.4 13.6001H65.4C64.9 13.6001 64.5 14.0001 64.5 14.5001V30.9001H68.3V14.4001C68.3 14.0001 67.9 13.6001 67.4 13.6001ZM67.1 28.6001C67.1 28.9001 66.9 29.1001 66.6 29.1001H66.1C65.8 29.1001 65.6 28.9001 65.6 28.6001V25.8001C65.6 25.5001 65.8 25.3001 66.1 25.3001H66.6C66.9 25.3001 67.1 25.5001 67.1 25.8001V28.6001ZM67.1 24.1001C67.1 24.4001 66.9 24.6001 66.6 24.6001H66.1C65.8 24.6001 65.6 24.4001 65.6 24.1001V21.3001C65.6 21.0001 65.8 20.8001 66.1 20.8001H66.6C66.9 20.8001 67.1 21.0001 67.1 21.3001V24.1001ZM67.1 19.6001C67.1 19.9001 66.9 20.1001 66.6 20.1001H66.1C65.8 20.1001 65.6 19.9001 65.6 19.6001V16.8001C65.6 16.5001 65.8 16.3001 66.1 16.3001H66.6C66.9 16.3001 67.1 16.5001 67.1 16.8001V19.6001Z" fill="#1A2189"/>
<path d="M64.1001 31.4001V77.3001H68.6001V31.4001H64.1001ZM67.5001 74.1001C67.5001 74.5001 67.2001 74.8001 66.8001 74.8001H66.0001C65.6001 74.8001 65.3001 74.5001 65.3001 74.1001V70.0001C65.3001 69.6001 65.6001 69.3001 66.0001 69.3001H66.8001C67.2001 69.3001 67.5001 69.6001 67.5001 70.0001V74.1001ZM67.5001 66.9001C67.5001 67.3001 67.2001 67.6001 66.8001 67.6001H66.0001C65.6001 67.6001 65.3001 67.3001 65.3001 66.9001V62.8001C65.3001 62.4001 65.6001 62.1001 66.0001 62.1001H66.8001C67.2001 62.1001 67.5001 62.4001 67.5001 62.8001V66.9001ZM67.5001 59.6001C67.5001 60.0001 67.2001 60.3001 66.8001 60.3001H66.0001C65.6001 60.3001 65.3001 60.0001 65.3001 59.6001V55.5001C65.3001 55.1001 65.6001 54.8001 66.0001 54.8001H66.8001C67.2001 54.8001 67.5001 55.1001 67.5001 55.5001V59.6001ZM67.5001 52.4001C67.5001 52.8001 67.2001 53.1001 66.8001 53.1001H66.0001C65.6001 53.1001 65.3001 52.8001 65.3001 52.4001V48.3001C65.3001 47.9001 65.6001 47.6001 66.0001 47.6001H66.8001C67.2001 47.6001 67.5001 47.9001 67.5001 48.3001V52.4001ZM67.5001 45.2001C67.5001 45.6001 67.2001 45.9001 66.8001 45.9001H66.0001C65.6001 45.9001 65.3001 45.6001 65.3001 45.2001V41.1001C65.3001 40.7001 65.6001 40.4001 66.0001 40.4001H66.8001C67.2001 40.4001 67.5001 40.7001 67.5001 41.1001V45.2001ZM67.5001 38.0001C67.5001 38.4001 67.2001 38.7001 66.8001 38.7001H66.0001C65.6001 38.7001 65.3001 38.4001 65.3001 38.0001V33.9001C65.3001 33.5001 65.6001 33.2001 66.0001 33.2001H66.8001C67.2001 33.2001 67.5001 33.5001 67.5001 33.9001V38.0001Z" fill="#1A2189"/>
<path d="M57.0999 34.7001H63.3999V31.4001H56.8999L57.0999 34.7001Z" fill="#1A2189"/>
<path d="M0 71V77.3H2.2C2.2 75.1 2.9 73 4.1 71.3C2.7 71.2 1.3 71.1 0 71ZM43.2 69.1C35.6 70.3 28.2 71.1 21.1 71.4C22.3 73.1 23 75.1 23 77.3H39.2C39.2 74 40.8 71 43.2 69.1ZM61.8 65.3C61.3 65.4 60.7 65.6 60.2 65.7C57.7 66.3 55.2 66.9 52.7 67.4C56.9 68.7 60 72.7 60 77.4H63V68.7C63.1 67.3 62.6 66.2 61.8 65.3Z" fill="#FFF000"/>
<path d="M97.7001 52.8C89.7001 56.5 80.9001 59.8 71.6001 62.6V71.8001H97.7001V52.8Z" fill="#FFF000"/>
<path d="M57.8 63.4001H5.2C2.3 63.4001 0 65.7001 0 68.6001V71.0001C1.3 71.1001 2.7 71.2001 4.1 71.3001C6 68.6001 9.1 66.9001 12.6 66.9001C16.1 66.9001 19.3 68.7001 21.2 71.4001C28.3 71.1001 35.7 70.3001 43.3 69.1001C45.1 67.7001 47.3 66.9001 49.7 66.9001C50.8 66.9001 51.8 67.1001 52.8 67.4001C55.3 66.9001 57.8 66.3001 60.3 65.7001C60.8 65.6001 61.4 65.4001 61.9 65.3001C60.9 64.1001 59.4 63.4001 57.8 63.4001Z" fill="#FFF000"/>
<path d="M97.7001 43.6001H90.1001V55.2001H79.2001V43.6001H71.6001V62.6001C80.9001 59.8001 89.6001 56.5001 97.7001 52.8001V43.6001Z" fill="#FFF000"/>
</svg>
