<svg width="100" height="100" viewBox="0 0 100 100" fill="none" xmlns="http://www.w3.org/2000/svg">
<path d="M52.0002 28.7001C51.5002 26.9001 50.9002 25.1 50.2002 23.3C53.0002 25.3 55.4002 27.7 57.4002 30.5C55.6002 29.8 53.8002 29.2001 52.0002 28.7001Z" fill="#1A2189"/>
<path d="M18.7998 20.0001C22.0998 18.5001 25.7998 17.6001 29.5998 17.4001V25.9001C24.9998 26.0001 20.3998 26.6001 15.7998 27.6001C16.6998 25.0001 17.6998 22.5001 18.7998 20.0001Z" fill="#1A2189"/>
<path d="M47.4001 27.5C42.9001 26.5 38.3001 26 33.6001 25.8V17.3C37.4001 17.5 41.1001 18.5 44.4001 19.9C45.6001 22.5 46.6001 25 47.4001 27.5Z" fill="#1A2189"/>
<path d="M11.2999 28.7001C9.4999 29.2001 7.6999 29.8 5.8999 30.5C7.8999 27.7 10.2999 25.3 13.0999 23.3C12.3999 25.1 11.7999 26.9001 11.2999 28.7001Z" fill="#1A2189"/>
<path d="M2.6 36.2001C5.1 35.1001 7.6 34.1 10.1 33.3C9.1 37.8 8.6 42.4 8.4 47.1H0C0.2 43.1 1.2 39.5001 2.6 36.2001Z" fill="#1A2189"/>
<path d="M29.6 29.9001V47.0001H12.5C12.6 41.9001 13.3 36.9001 14.6 32.0001C19.5 30.7001 24.6 30.0001 29.6 29.9001Z" fill="#1A2189"/>
<path d="M29.6 68.1C24.5 68 19.5 67.3 14.6 66C13.4 61.1 12.7 56 12.5 51H29.6V68.1Z" fill="#1A2189"/>
<path d="M10.2 64.8C7.6 64 5.1 63 2.7 61.9C1.2 58.5 0.2 54.8 0 51H8.5C8.6 55.6 9.2 60.2 10.2 64.8Z" fill="#1A2189"/>
<path d="M11.2999 69.3C11.7999 71.1 12.3999 72.9 13.0999 74.7C10.2999 72.7 7.8999 70.3 5.8999 67.5C7.6999 68.2 9.4999 68.8 11.2999 69.3Z" fill="#1A2189"/>
<path d="M15.8999 70.5C20.3999 71.5 24.9999 72 29.6999 72.2V80.7C25.8999 80.5 22.1999 79.5 18.8999 78.1C17.6999 75.5 16.6999 73 15.8999 70.5Z" fill="#1A2189"/>
<path d="M47.4002 70.5C46.6002 73.1 45.6002 75.6 44.5002 78C41.2002 79.5 37.5002 80.4 33.7002 80.6V72.1C38.3002 72 42.9002 71.5 47.4002 70.5Z" fill="#1A2189"/>
<path d="M33.7002 60.1L50.5002 55.5C50.2002 59 49.6002 62.5 48.7002 66C43.8002 67.2 38.7002 67.9 33.7002 68.1V60.1Z" fill="#1A2189"/>
<path d="M52.0002 69.3C53.8002 68.8 55.6002 68.2 57.4002 67.5C55.4002 70.3 53.0002 72.7 50.2002 74.7C50.9002 72.9 51.4002 71.1 52.0002 69.3Z" fill="#1A2189"/>
<path d="M59.4001 62.4001C57.3001 63.3001 55.2001 64.1001 53.1001 64.8001C53.8001 61.4001 54.3001 57.9 54.6001 54.5L58.9001 53.3L59.4001 62.4001Z" fill="#1A2189"/>
<path d="M49.7001 36.6001L37.1001 44.1001L35.5001 45.0001L34.8001 47.0001H33.6001V29.9001C38.7001 30.0001 43.7001 30.7001 48.6001 32.0001C49.1001 33.5001 49.4001 35.0001 49.7001 36.6001Z" fill="#1A2189"/>
<path d="M54.5001 33.7L53.3001 34.4C53.2001 34 53.1001 33.6 53.1001 33.2C53.6001 33.4 54.0001 33.5 54.5001 33.7Z" fill="#1A2189"/>
<path d="M73.6 48.4C73.6 48.4 73 59.8 72.8 63.7C72.8 64 72.7 64.3 72.7 64.6C72.4 66.3 71.8 67.7 70.9 68.7L81.2 77.8L82.4 82.6L68.4 79.5L54.2 82.7L55.3 78L55.4 77.9L65.6 68.7C64.7 67.7 64.1 66.2 63.8 64.6C63.8 64.3 63.7 64.1 63.7 63.8C63.5 60.1 62.9 48.5 62.9 48.5L36.5 55L39.3 48L62.3 35.5C62.2 34.2 61.8 26.1 61.7 24.4C61.5 20.9 64.4 18 68.3 18C72.2 18 75.2 20.9 74.9 24.4C74.8 26.1 74.4 34.2 74.3 35.5L97.1 47.7L100 54.9L73.6 48.4Z" fill="#FFF000"/>
</svg>
