<svg width="100" height="100" viewBox="0 0 100 100" fill="none" xmlns="http://www.w3.org/2000/svg">
<path d="M57.548 60.966C54.366 60.966 51.776 63.556 51.776 66.738C51.776 69.92 54.366 72.51 57.548 72.51C60.73 72.51 63.32 69.92 63.32 66.738C63.32 63.482 60.73 60.966 57.548 60.966ZM57.548 69.328C56.068 69.328 54.884 68.144 54.884 66.664C54.884 65.184 56.068 64 57.548 64C59.028 64 60.212 65.184 60.212 66.664C60.212 68.144 59.028 69.328 57.548 69.328ZM71.756 60.966C68.574 60.966 65.984 63.556 65.984 66.738C65.984 69.92 68.574 72.51 71.756 72.51C74.938 72.51 77.528 69.92 77.528 66.738C77.528 63.482 74.938 60.966 71.756 60.966ZM71.756 69.328C70.276 69.328 69.092 68.144 69.092 66.664C69.092 65.184 70.276 64 71.756 64C73.236 64 74.42 65.184 74.42 66.664C74.42 68.144 73.236 69.328 71.756 69.328ZM19.512 64.444H15.22C14.184 64.444 13.37 63.63 13.37 62.594V59.042C13.37 58.006 14.184 57.118 15.22 57.118H23.73C21.362 58.746 19.734 61.41 19.512 64.444ZM83.966 59.042V62.594C83.966 63.63 83.152 64.444 82.116 64.444H79.156C78.194 61.262 75.234 58.968 71.756 58.968C68.574 58.968 65.836 60.892 64.652 63.704C63.468 60.966 60.73 58.968 57.548 58.968C54.07 58.968 51.11 61.262 50.148 64.444H38.308C38.16 61.41 36.532 58.746 34.09 57.192H82.116C83.152 57.118 83.966 58.006 83.966 59.042ZM28.91 57.562C24.84 57.562 21.436 60.892 21.436 65.036C21.436 69.106 24.766 72.51 28.91 72.51C32.98 72.51 36.384 69.18 36.384 65.036C36.384 60.892 33.054 57.562 28.91 57.562ZM28.91 68.292C27.06 68.292 25.58 66.812 25.58 64.962C25.58 63.112 27.06 61.632 28.91 61.632C30.76 61.632 32.24 63.112 32.24 64.962C32.24 66.812 30.76 68.292 28.91 68.292ZM43.118 29.442C43.044 28.11 41.934 27 40.528 27H20.844C19.438 27 18.254 28.184 18.254 29.59C18.254 30.478 18.698 31.218 19.364 31.736L14.48 41.578C13.592 42.096 13 43.206 13 44.39V51.938C13 53.714 14.258 55.12 15.886 55.12H40.232C41.86 55.12 43.118 53.714 43.118 51.938V29.442ZM30.316 41.726C30.316 42.91 29.428 43.872 28.244 43.946C28.244 43.946 20.696 43.946 19.068 43.946C17.44 43.946 16.404 42.984 17.292 40.912C18.032 39.136 20.548 34.326 20.548 34.326C21.14 32.846 22.398 31.736 24.248 31.736H28.022C29.28 31.736 30.242 32.772 30.242 34.03V41.726H30.316ZM39.566 41.726C39.566 42.984 38.53 44.02 37.272 44.02H35.274C34.016 44.02 32.98 42.984 32.98 41.726V33.956C32.98 32.698 34.016 31.662 35.274 31.662H37.272C38.53 31.662 39.566 32.698 39.566 33.956V41.726Z" fill="white"/>
<path d="M48.298 55.86H82.042C85.15 52.826 87 48.904 87 44.686C87 34.918 77.232 27 65.17 27C56.734 27 49.482 30.848 45.856 36.472V52.826C46.522 53.936 47.336 54.898 48.298 55.86Z" fill="#FFF000"/>
<path d="M48.8153 38.8394C48.9633 38.6914 57.9913 26.7774 73.9013 33.4374C74.6413 33.7334 75.0113 34.6214 74.7153 35.3614C74.4193 36.1014 73.5313 36.4714 72.7913 36.1754C59.1013 30.4034 51.5533 40.1714 51.1833 40.6154C50.8873 40.9854 50.4433 41.2074 49.9993 41.2074C49.7033 41.2074 49.4073 41.1334 49.1113 40.9114C48.5193 40.3934 48.3713 39.4314 48.8153 38.8394Z" fill="white"/>
</svg>
