<svg width="100" height="100" viewBox="0 0 100 100" fill="none" xmlns="http://www.w3.org/2000/svg">
<path d="M40.6543 53.0283C40.8786 56.0937 41.402 59.0844 42.1496 61.9255C44.3178 63.7199 50.4487 67.533 61.6636 67.533C73.1777 67.533 78.6356 63.2713 80.5048 61.4769C81.2524 58.7853 81.701 55.8694 81.9253 53.0283C77.9627 55.4956 71.458 58.0377 61.7384 58.0377C51.645 58.0377 44.8412 55.4208 40.6543 53.0283Z" fill="#FFF000"/>
<path d="M82.0002 45.178C81.8506 42.1125 81.402 39.1967 80.8787 36.5798C77.8132 38.9724 71.8319 42.0378 61.6637 42.0378C51.1964 42.0378 44.7665 38.9724 41.6263 36.7294C41.103 39.421 40.7291 42.4116 40.5796 45.5518C42.2992 47.1219 48.6544 51.8322 61.7385 51.8322C75.1216 51.9069 80.7291 46.6733 82.0002 45.178Z" fill="#FFF000"/>
<path d="M43.8691 66.4114C45.2149 69.3273 47.0841 71.8694 49.4766 73.8881C51.7944 75.7572 56.2804 77.103 61.0654 77.2526C61.1402 77.2526 61.2149 77.2526 61.2897 77.2526C61.3645 77.2526 61.4392 77.2526 61.514 77.2526C66.299 77.103 70.785 75.832 73.1028 73.8881C75.5701 71.8694 77.3645 69.2526 78.785 66.3367C75.3458 68.3554 69.8878 70.3741 61.7383 70.3741C53.2149 70.3741 47.4579 68.3554 43.8691 66.4114Z" fill="white"/>
<path d="M80.2052 33.514C79.4576 30.5981 78.4856 28.3551 77.6632 27.2336C73.8501 22.1495 63.1585 22 61.3641 22C59.5697 22 48.8781 22.2243 45.0651 27.2336C44.1679 28.4299 43.1959 30.7477 42.4482 33.8131C44.766 35.6075 50.8221 39.271 61.8127 39.271C72.5791 39.1963 78.037 35.4579 80.2052 33.514ZM49.0277 28.2804C49.0277 26.3364 54.5604 24.6916 61.2894 24.6916C68.0931 24.6916 73.551 26.2617 73.551 28.2804C73.551 30.2243 68.0183 31.8692 61.2894 31.8692C54.4856 31.8692 49.0277 30.2243 49.0277 28.2804Z" fill="white"/>
<path d="M49.6267 55.7201C50.7828 55.7201 51.7201 54.7828 51.7201 53.6267C51.7201 52.4705 50.7828 51.5332 49.6267 51.5332C48.4705 51.5332 47.5332 52.4705 47.5332 53.6267C47.5332 54.7828 48.4705 55.7201 49.6267 55.7201Z" fill="white"/>
<path d="M61.2897 56.9904C62.4459 56.9904 63.3832 56.0531 63.3832 54.8969C63.3832 53.7407 62.4459 52.8035 61.2897 52.8035C60.1336 52.8035 59.1963 53.7407 59.1963 54.8969C59.1963 56.0531 60.1336 56.9904 61.2897 56.9904Z" fill="white"/>
<path d="M73.0285 55.7201C74.1847 55.7201 75.122 54.7828 75.122 53.6267C75.122 52.4705 74.1847 51.5332 73.0285 51.5332C71.8723 51.5332 70.9351 52.4705 70.9351 53.6267C70.9351 54.7828 71.8723 55.7201 73.0285 55.7201Z" fill="white"/>
<path d="M35.1963 42.1872C35.1963 37.776 32.729 34.0376 29.2897 32.7666V28.3554H29.7383C30.2617 28.3554 30.7103 27.9068 30.7103 27.3834V23.5704C30.7103 23.047 30.2617 22.5984 29.7383 22.5984H23.4579C22.9346 22.5984 22.486 23.047 22.486 23.5704V27.3834C22.486 27.9068 22.9346 28.3554 23.4579 28.3554H23.9065V32.7666C20.4673 34.1124 18 37.776 18 42.2619V42.3367C18 42.4115 18 42.4115 18 42.4862V73.29C18 74.9348 19.3458 76.2059 21.0654 76.2059H32.2804C33.9252 76.2059 35.3458 74.8601 35.3458 73.29V42.4115C35.3458 42.3367 35.3458 42.3367 35.3458 42.2619C35.1215 42.2619 35.1963 42.1872 35.1963 42.1872ZM30.0374 63.1965C30.0374 64.318 29.1402 65.2152 28.0187 65.2152H22.2617C21.1402 65.2152 20.243 64.318 20.243 63.1965V59.7573H29.9626V63.1965H30.0374ZM30.0374 55.8694H20.3178V44.8788C20.3178 43.7573 21.215 42.8601 22.3364 42.8601H28.0935C29.215 42.8601 30.1122 43.7573 30.1122 44.8788V55.8694H30.0374Z" fill="#FFF000"/>
</svg>
