<svg width="100" height="100" viewBox="0 0 100 100" fill="none" xmlns="http://www.w3.org/2000/svg">
<path d="M43.1021 61.4637L24.2701 46.1353L20 52.9236L38.0656 68.1425L43.1021 61.4637Z" fill="#FFF000"/>
<path d="M54.9268 32.887L25.6934 43.1789L45.5108 59.4927L75.6202 47.6679L54.9268 32.887Z" fill="#FFF000"/>
<path d="M52.0805 69.894L80.0001 58.8357L76.2775 50.624L47.4819 62.0108L52.0805 69.894Z" fill="#FFF000"/>
<path d="M51.4232 73.3979C50.8758 73.3979 50.3283 73.0694 50.1094 72.6315L46.8247 66.9381V90.3687L77.1531 77.668V63.325L52.0802 73.2884C51.8612 73.2884 51.6422 73.3979 51.4232 73.3979Z" fill="#FFF000"/>
<path d="M38.5039 71.9745C38.3944 71.9745 38.3944 71.9745 38.2849 71.9745C37.9564 71.9745 37.628 71.865 37.2995 71.646L23.9419 60.3687V72.1934L43.7593 89.7116V65.8431L39.5988 71.3175C39.2703 71.646 38.9418 71.865 38.5039 71.9745Z" fill="#FFF000"/>
<path d="M61.3323 38.7219H60.3323V39.7219V48.8577H41.5214V39.7219V38.7219H40.5214H30.259L51.0406 14.177L71.9235 38.7219H61.3323Z" fill="white" stroke="#1A2189" stroke-width="2"/>
</svg>
